<svg width="540" height="387" viewBox="0 0 540 387" fill="none" xmlns="http://www.w3.org/2000/svg">
<g opacity="0.5">
<path d="M255.058 316.747L322.307 316.23V309.604L257.507 309.886" stroke="white" stroke-width="2" stroke-miterlimit="10"/>
<path d="M322.308 233.525H273.142L271.824 239.446L322.308 239.164V233.525Z" stroke="white" stroke-width="2" stroke-miterlimit="10"/>
<path d="M322.307 267.218L371.332 267.03V161.3C335.965 161.253 319.246 161.253 275.355 161.3C251.903 161.3 230.711 175.256 221.527 196.825L140.574 386.529H371.332V277.744L324.945 277.65L262.64 277.838L265.466 267.453L322.307 267.218ZM273.142 233.525H322.307V239.164L271.823 239.446L273.142 233.525ZM322.307 309.604V316.23L255.058 316.747L257.507 309.839L322.307 309.604Z" stroke="white" stroke-width="2" stroke-miterlimit="10"/>
</g>
<path opacity="0.5" d="M0 161.3H145.472L114.06 232.961H72.7593V239.211H118.11L153.101 161.3H230.334L149.051 349.782C139.491 371.962 117.592 386.341 93.3862 386.388C87.0757 386.388 80.3885 386.435 73.6541 386.435C43.5614 386.623 0 386.435 0 386.435V316.277H85.192L87.6408 309.369H55.5702C24.8653 309.369 0 284.558 0 253.92V161.3Z" stroke="white" stroke-width="2" stroke-miterlimit="10"/>
<g opacity="0.5">
<path d="M500.838 156.647L535.311 73.4728H526.504L460.573 227.04H376.606L467.167 32.2144C475.738 13.7468 494.339 1.90497 514.731 1.90497H593.236L574.492 45.3719L582.074 45.4189L600.959 1.90497L684.267 1.85797V227.04H617.442V73.3318H608.918L578.024 156.882L500.838 156.647Z" stroke="white" stroke-width="2" stroke-miterlimit="10"/>
</g>
</svg>
